<svg width="333" height="227" viewBox="0 0 333 227" fill="none" xmlns="http://www.w3.org/2000/svg">
<rect width="332.032" height="227" rx="30" fill="#98C4FF"/>
<path d="M284.846 148.031C284.846 132.397 281.767 116.916 275.784 102.471C269.801 88.0267 261.031 74.9022 249.976 63.8469C238.921 52.7917 225.796 44.0221 211.352 38.0391C196.907 32.056 181.426 28.9766 165.791 28.9766C150.157 28.9766 134.676 32.056 120.231 38.0391C105.787 44.0221 92.6622 52.7917 81.6069 63.8469C70.5517 74.9022 61.7821 88.0267 55.7991 102.471C49.816 116.916 46.7366 132.397 46.7366 148.031H69.5748C69.5748 135.396 72.0635 122.884 76.8989 111.211C81.7342 99.5374 88.8215 88.9305 97.756 79.996C106.691 71.0615 117.297 63.9742 128.971 59.1388C140.644 54.3035 153.156 51.8148 165.791 51.8148C178.427 51.8148 190.938 54.3035 202.612 59.1388C214.285 63.9742 224.892 71.0614 233.827 79.996C242.761 88.9305 249.849 99.5374 254.684 111.211C259.519 122.884 262.008 135.396 262.008 148.031H284.846Z" fill="#609CEB"/>
<path d="M284.846 148.031C284.846 124.485 277.864 101.467 264.782 81.8881C251.7 62.3096 233.106 47.0501 211.352 38.0391C189.597 29.0281 165.659 26.6704 142.565 31.2642C119.471 35.8579 98.2571 47.1968 81.6069 63.8469L97.756 79.996C111.212 66.5399 128.356 57.3761 147.021 53.6636C165.685 49.951 185.031 51.8564 202.612 59.1388C220.193 66.4213 235.22 78.7536 245.793 94.5763C256.365 110.399 262.008 129.002 262.008 148.031H284.846Z" fill="#3188FF"/>
<path d="M284.846 148.031C284.846 132.397 281.767 116.916 275.784 102.471C269.801 88.0267 261.031 74.9022 249.976 63.8469C238.921 52.7917 225.796 44.0221 211.352 38.0391C196.907 32.056 181.426 28.9766 165.791 28.9766V51.8148C178.427 51.8148 190.938 54.3035 202.612 59.1388C214.285 63.9742 224.892 71.0614 233.827 79.996C242.761 88.9305 249.849 99.5374 254.684 111.211C259.519 122.884 262.008 135.396 262.008 148.031H284.846Z" fill="#006CFF"/>
<path d="M284.846 148.031C284.846 132.397 281.767 116.916 275.784 102.471C269.801 88.0267 261.031 74.9022 249.976 63.8469L233.827 79.996C242.761 88.9305 249.849 99.5374 254.684 111.211C259.519 122.884 262.008 135.396 262.008 148.031H284.846Z" fill="#003F94"/>
<path d="M245.509 129.961C246.701 129.989 246.852 131.707 245.682 131.941L167.858 147.569C162.108 148.723 156.631 144.622 156.119 138.779C155.608 132.936 160.29 127.947 166.154 128.085L245.509 129.961Z" fill="#122949"/>
<path d="M141.207 186.151V160.699H140.451L136.503 170.023H130.875L136.881 156.751H146.583V186.151H141.207ZM161.877 186.739C158.181 186.739 155.241 185.731 153.057 183.715C150.873 181.671 149.781 178.759 149.781 174.979V167.923C149.781 164.143 150.873 161.245 153.057 159.229C155.241 157.185 158.181 156.163 161.877 156.163C165.573 156.163 168.513 157.185 170.697 159.229C172.881 161.245 173.973 164.143 173.973 167.923V174.979C173.973 178.759 172.881 181.671 170.697 183.715C168.513 185.731 165.573 186.739 161.877 186.739ZM161.877 181.783C163.949 181.783 165.559 181.181 166.707 179.977C167.855 178.773 168.429 177.163 168.429 175.147V167.755C168.429 165.739 167.855 164.129 166.707 162.925C165.559 161.721 163.949 161.119 161.877 161.119C159.833 161.119 158.223 161.721 157.047 162.925C155.899 164.129 155.325 165.739 155.325 167.755V175.147C155.325 177.163 155.899 178.773 157.047 179.977C158.223 181.181 159.833 181.783 161.877 181.783ZM188.58 186.739C184.884 186.739 181.944 185.731 179.76 183.715C177.576 181.671 176.484 178.759 176.484 174.979V167.923C176.484 164.143 177.576 161.245 179.76 159.229C181.944 157.185 184.884 156.163 188.58 156.163C192.276 156.163 195.216 157.185 197.4 159.229C199.584 161.245 200.676 164.143 200.676 167.923V174.979C200.676 178.759 199.584 181.671 197.4 183.715C195.216 185.731 192.276 186.739 188.58 186.739ZM188.58 181.783C190.652 181.783 192.262 181.181 193.41 179.977C194.558 178.773 195.132 177.163 195.132 175.147V167.755C195.132 165.739 194.558 164.129 193.41 162.925C192.262 161.721 190.652 161.119 188.58 161.119C186.536 161.119 184.926 161.721 183.75 162.925C182.602 164.129 182.028 165.739 182.028 167.755V175.147C182.028 177.163 182.602 178.773 183.75 179.977C184.926 181.181 186.536 181.783 188.58 181.783Z" fill="#003F94"/>
</svg>
