<svg width="632" height="198" viewBox="0 0 632 198" fill="none" xmlns="http://www.w3.org/2000/svg">
<path d="M160.277 152.274L96.6448 47.3139H142.893L197.177 148.174H180.449L234.733 47.3139H280.325L217.349 152.274H160.277ZM322.99 107.994V121.114H447.63V152.274H281.99V47.3139H447.302V78.474H322.99V91.594H424.67V107.994H322.99ZM455.773 152.274V47.3139H559.093C580.303 47.3139 595.938 49.3913 605.997 53.5459C616.055 57.7006 621.085 64.9166 621.085 75.194C621.085 81.754 618.898 86.7833 614.525 90.282C610.261 93.7806 604.083 96.2406 595.993 97.662C588.011 98.974 578.39 99.794 567.129 100.122L568.441 98.81C576.641 98.81 584.239 99.0286 591.237 99.466C598.234 99.9033 604.357 100.887 609.605 102.418C614.853 103.949 618.953 106.299 621.905 109.47C624.857 112.641 626.333 117.014 626.333 122.59C626.333 129.369 623.927 134.945 619.117 139.318C614.306 143.691 607.473 146.971 598.617 149.158C589.761 151.235 579.319 152.274 567.293 152.274H455.773ZM496.773 121.442H567.293C573.087 121.442 577.242 120.895 579.757 119.802C582.381 118.709 583.693 116.959 583.693 114.554C583.693 112.914 583.091 111.602 581.889 110.618C580.795 109.634 579.046 108.923 576.641 108.486C574.235 107.939 571.119 107.666 567.293 107.666H496.773V121.442ZM496.773 91.922H560.405C566.199 91.922 570.354 91.3753 572.869 90.282C575.493 89.1886 576.805 87.4393 576.805 85.034C576.805 82.5193 575.493 80.77 572.869 79.786C570.354 78.6926 566.199 78.146 560.405 78.146H496.773V91.922Z" fill="white"/>
<path d="M25.5827 40.0012H61.3646L36.4169 159.274H0.635132L25.5827 40.0012Z" fill="#006CFF"/>
<path d="M67.0858 40.0012H81.1147L71.3336 159.274H57.3047L67.0858 40.0012Z" fill="#003F94"/>
</svg>
