<svg width="30" height="29" viewBox="0 0 30 29" fill="none" xmlns="http://www.w3.org/2000/svg">
<path d="M14.7513 0.200684C10.8679 0.200684 10.3805 0.217664 8.85531 0.287074C7.33305 0.356782 6.29398 0.597781 5.3848 0.951386C4.44434 1.31661 3.64657 1.80516 2.85178 2.60025C2.05639 3.39504 1.56784 4.19281 1.20142 5.13297C0.846925 6.04246 0.605628 7.08182 0.537112 8.60348C0.468893 10.1287 0.451019 10.6164 0.451019 14.4998C0.451019 18.3832 0.468298 18.869 0.53741 20.3943C0.607416 21.9165 0.848415 22.9556 1.20172 23.8648C1.56724 24.8052 2.05579 25.603 2.85088 26.3978C3.64537 27.1932 4.44314 27.6829 5.38301 28.0482C6.29279 28.4018 7.33216 28.6428 8.85411 28.7125C10.3793 28.7819 10.8664 28.7989 14.7495 28.7989C18.6332 28.7989 19.1191 28.7819 20.6443 28.7125C22.1666 28.6428 23.2068 28.4018 24.1166 28.0482C25.0568 27.6829 25.8533 27.1932 26.6478 26.3978C27.4432 25.603 27.9318 24.8052 28.2982 23.8651C28.6497 22.9556 28.891 21.9162 28.9625 20.3946C29.031 18.8693 29.0489 18.3832 29.0489 14.4998C29.0489 10.6164 29.031 10.129 28.9625 8.60378C28.891 7.08152 28.6497 6.04246 28.2982 5.13327C27.9318 4.19281 27.4432 3.39504 26.6478 2.60025C25.8524 1.80486 25.0571 1.31631 24.1157 0.951386C23.2041 0.597781 22.1645 0.356782 20.6422 0.287074C19.117 0.217664 18.6314 0.200684 14.7468 0.200684H14.7513ZM13.4685 2.7775C13.8493 2.7769 14.2741 2.7775 14.7513 2.7775C18.5691 2.7775 19.0217 2.7912 20.5293 2.85972C21.9235 2.92347 22.6801 3.15642 23.1842 3.35214C23.8515 3.61131 24.3272 3.92113 24.8274 4.42159C25.3279 4.92206 25.6377 5.3987 25.8974 6.06599C26.0931 6.56944 26.3264 7.3261 26.3899 8.72026C26.4584 10.2276 26.4733 10.6804 26.4733 14.4965C26.4733 18.3126 26.4584 18.7654 26.3899 20.2727C26.3261 21.6669 26.0931 22.4235 25.8974 22.927C25.6383 23.5943 25.3279 24.0694 24.8274 24.5696C24.3269 25.0701 23.8518 25.3799 23.1842 25.6391C22.6807 25.8357 21.9235 26.068 20.5293 26.1318C19.022 26.2003 18.5691 26.2152 14.7513 26.2152C10.9331 26.2152 10.4806 26.2003 8.97327 26.1318C7.57911 26.0674 6.82245 25.8345 6.31811 25.6388C5.65082 25.3796 5.17418 25.0698 4.67372 24.5693C4.17325 24.0688 3.86344 23.5934 3.60367 22.9258C3.40795 22.4224 3.1747 21.6657 3.11124 20.2715C3.04273 18.7642 3.02902 18.3114 3.02902 14.4929C3.02902 10.6745 3.04273 10.224 3.11124 8.71668C3.17499 7.32252 3.40795 6.56586 3.60367 6.06182C3.86284 5.39453 4.17325 4.91789 4.67372 4.41742C5.17418 3.91696 5.65082 3.60714 6.31811 3.34738C6.82215 3.15076 7.57911 2.9184 8.97327 2.85436C10.2924 2.79478 10.8036 2.7769 13.4685 2.77392V2.7775ZM22.384 5.15174C21.4367 5.15174 20.6681 5.91942 20.6681 6.86704C20.6681 7.81435 21.4367 8.58293 22.384 8.58293C23.3313 8.58293 24.0999 7.81435 24.0999 6.86704C24.0999 5.91972 23.3313 5.15115 22.384 5.15115V5.15174ZM14.7513 7.15659C10.696 7.15659 7.40812 10.4445 7.40812 14.4998C7.40812 18.555 10.696 21.8415 14.7513 21.8415C18.8066 21.8415 22.0933 18.555 22.0933 14.4998C22.0933 10.4445 18.8063 7.15659 14.751 7.15659H14.7513ZM14.7513 9.73341C17.3835 9.73341 19.5177 11.8672 19.5177 14.4998C19.5177 17.132 17.3835 19.2661 14.7513 19.2661C12.1188 19.2661 9.98493 17.132 9.98493 14.4998C9.98493 11.8672 12.1188 9.73341 14.7513 9.73341Z" fill="white"/>
</svg>
