<svg width="333" height="228" viewBox="0 0 333 228" fill="none" xmlns="http://www.w3.org/2000/svg">
<rect x="0.484314" y="0.708008" width="332.032" height="227" rx="30" fill="#003F94"/>
<path d="M161.59 158.395V151.031H203.323V113.717C203.323 108.971 202.3 104.409 200.254 100.031C198.209 95.6533 195.467 91.7869 192.031 88.4319C188.594 85.0769 184.666 82.3971 180.247 80.3923C175.828 78.3875 171.246 77.3851 166.5 77.3851C161.754 77.3851 157.172 78.3875 152.753 80.3923C148.334 82.3971 144.406 85.0769 140.97 88.4319C137.533 91.7869 134.792 95.6533 132.746 100.031C130.7 104.409 129.677 108.971 129.677 113.717V143.666H127.222C124.522 143.666 122.21 142.705 120.287 140.782C118.364 138.859 117.403 136.547 117.403 133.847V124.027C117.403 122.145 117.853 120.488 118.753 119.056C119.653 117.624 120.84 116.458 122.313 115.558L122.681 109.053C123.417 103.079 125.115 97.6785 127.775 92.8507C130.434 88.0228 133.748 83.9313 137.717 80.5764C141.686 77.2214 146.145 74.6234 151.096 72.7822C156.046 70.9411 161.181 70.0205 166.5 70.0205C171.901 70.0205 177.076 70.9411 182.027 72.7822C186.978 74.6234 191.417 77.2419 195.345 80.6378C199.272 84.0336 202.566 88.1251 205.225 92.912C207.885 97.699 209.583 103.038 210.319 108.93L210.687 115.313C212.16 116.049 213.347 117.133 214.247 118.565C215.147 119.997 215.597 121.572 215.597 123.291V134.583C215.597 136.383 215.147 137.979 214.247 139.37C213.347 140.761 212.16 141.825 210.687 142.561V151.031C210.687 153.076 209.971 154.815 208.539 156.247C207.107 157.679 205.369 158.395 203.323 158.395H161.59ZM151.771 122.8C150.789 122.8 149.93 122.432 149.193 121.695C148.457 120.959 148.089 120.059 148.089 118.995C148.089 118.013 148.457 117.174 149.193 116.479C149.93 115.783 150.83 115.435 151.894 115.435C152.876 115.435 153.714 115.783 154.41 116.479C155.105 117.174 155.453 118.054 155.453 119.118C155.453 120.1 155.105 120.959 154.41 121.695C153.714 122.432 152.835 122.8 151.771 122.8ZM181.229 122.8C180.247 122.8 179.388 122.432 178.652 121.695C177.915 120.959 177.547 120.059 177.547 118.995C177.547 118.013 177.915 117.174 178.652 116.479C179.388 115.783 180.288 115.435 181.352 115.435C182.334 115.435 183.173 115.783 183.868 116.479C184.564 117.174 184.911 118.054 184.911 119.118C184.911 120.1 184.564 120.959 183.868 121.695C183.173 122.432 182.293 122.8 181.229 122.8ZM137.165 116.417C136.837 111.589 137.512 107.212 139.19 103.284C140.867 99.356 143.118 96.0215 145.941 93.2803C148.764 90.539 152.016 88.4319 155.699 86.959C159.381 85.4861 163.063 84.7496 166.746 84.7496C174.192 84.7496 180.452 87.1022 185.525 91.8073C190.599 96.5125 193.708 102.384 194.854 109.421C187.162 109.339 180.39 107.273 174.54 103.222C168.689 99.1719 164.168 93.9144 160.977 87.45C159.667 94.0781 156.906 99.9493 152.691 105.064C148.477 110.178 143.302 113.962 137.165 116.417Z" fill="#98C4FF"/>
</svg>
