<svg width="53" height="53" viewBox="0 0 53 53" fill="none" xmlns="http://www.w3.org/2000/svg">
<path opacity="0.8" d="M18.9358 12.3976L18.9334 12.3804L18.9297 12.3635L17.0524 3.60257C16.8956 2.77263 16.5367 2.07949 15.9583 1.55617C15.3805 1.03337 14.6931 0.76593 13.9181 0.76593H4.17699C3.16799 0.76593 2.29712 1.11667 1.59688 1.81691C0.89664 2.51716 0.545898 3.38803 0.545898 4.39702C0.545898 10.1412 1.95905 15.8414 4.7731 21.493C7.58057 27.1313 11.2306 32.1967 15.7216 36.6877C20.2125 41.1786 25.2779 44.8287 30.9163 47.6361C36.5678 50.4502 42.268 51.8633 48.0122 51.8633C49.0212 51.8633 49.8921 51.5126 50.5923 50.8124C51.2926 50.1121 51.6433 49.2412 51.6433 48.2323V38.839C51.6433 37.9829 51.3723 37.2195 50.8316 36.5707C50.2973 35.9295 49.6189 35.5203 48.8105 35.3577L40.5405 33.5508C40.5395 33.5506 40.5385 33.5503 40.5374 33.5501C39.8409 33.3899 39.1433 33.4317 38.4554 33.6699C37.7694 33.9073 37.1685 34.3145 36.6542 34.8785L30.3152 41.4176C26.4077 39.248 22.9038 36.6235 19.802 33.544C16.6932 30.4576 13.8745 26.8444 11.3473 22.7014L18.029 15.9529C18.0293 15.9526 18.0296 15.9523 18.0299 15.952C18.4711 15.5104 18.7593 14.9715 18.8946 14.3488C19.0255 13.7468 19.0353 13.0943 18.9358 12.3976ZM12.2594 5.94071L13.7217 12.9341L8.80513 17.9113C7.79644 15.4272 7.04234 13.2123 6.53978 11.2648C6.04283 9.33915 5.77394 7.56515 5.72784 5.94071H12.2594ZM40.6189 45.7294C38.6678 45.2416 36.8465 44.6285 35.1539 43.8909L39.9731 38.8276L46.4685 40.1519V46.661C44.5799 46.5422 42.6302 46.2322 40.6189 45.7294Z" fill="#003F94" stroke="#003F94"/>
</svg>
