<svg width="203" height="203" viewBox="0 0 203 203" fill="none" xmlns="http://www.w3.org/2000/svg">
<g clip-path="url(#clip0_1_152)">
<rect width="203" height="203" rx="101.5" fill="#98C4FF"/>
<path d="M105 64.382C105 62.449 103.433 60.882 101.5 60.882C99.567 60.882 98 62.449 98 64.382H105ZM99.0251 141.093C100.392 142.46 102.608 142.46 103.975 141.093L126.249 118.819C127.616 117.452 127.616 115.236 126.249 113.869C124.882 112.502 122.666 112.502 121.299 113.869L101.5 133.668L81.701 113.869C80.3342 112.502 78.1181 112.502 76.7513 113.869C75.3844 115.236 75.3844 117.452 76.7513 118.819L99.0251 141.093ZM98 64.382V138.618H105V64.382H98Z" fill="#003F94"/>
<path d="M105 -76.41C105 -78.343 103.433 -79.91 101.5 -79.91C99.567 -79.91 98 -78.343 98 -76.41H105ZM99.0251 0.300865C100.392 1.66769 102.608 1.66769 103.975 0.300865L126.249 -21.973C127.616 -23.3398 127.616 -25.5559 126.249 -26.9227C124.882 -28.2896 122.666 -28.2896 121.299 -26.9227L101.5 -7.12376L81.701 -26.9227C80.3342 -28.2896 78.1181 -28.2896 76.7513 -26.9227C75.3844 -25.5559 75.3844 -23.3398 76.7513 -21.973L99.0251 0.300865ZM98 -76.41V-2.17401H105V-76.41H98Z" fill="#003F94"/>
</g>
<rect x="1.25" y="1.25" width="200.5" height="200.5" rx="100.25" stroke="black" stroke-width="2.5"/>
<defs>
<clipPath id="clip0_1_152">
<rect width="203" height="203" rx="101.5" fill="white"/>
</clipPath>
</defs>
</svg>
