<svg width="26" height="26" viewBox="0 0 26 26" fill="none" xmlns="http://www.w3.org/2000/svg">
<rect x="0.125488" y="0.0487061" width="25.2343" height="25.2343" rx="12.6172" fill="white"/>
<mask id="path-2-inside-1_7_172" fill="white">
<path d="M7.83545 6.25435C7.83545 5.66865 8.31025 5.19385 8.89595 5.19385H19.2354C19.8211 5.19385 20.2959 5.66865 20.2959 6.25435V16.5938C20.2959 17.1795 19.8211 17.6543 19.2354 17.6543H8.89595C8.31025 17.6543 7.83545 17.1795 7.83545 16.5938V6.25435Z"/>
</mask>
<path d="M7.83545 6.25435C7.83545 5.66865 8.31025 5.19385 8.89595 5.19385H19.2354C19.8211 5.19385 20.2959 5.66865 20.2959 6.25435V16.5938C20.2959 17.1795 19.8211 17.6543 19.2354 17.6543H8.89595C8.31025 17.6543 7.83545 17.1795 7.83545 16.5938V6.25435Z" fill="white"/>
<path d="M7.83545 6.25435C7.83545 4.7901 9.02246 3.6031 10.4867 3.6031H19.2354C20.6996 3.6031 21.8866 4.7901 21.8866 6.25435L18.7051 6.7846H8.89595C8.31025 6.7846 7.83545 6.7846 7.83545 6.7846V6.25435ZM20.2959 17.6543H7.83545H20.2959ZM7.83545 17.6543V5.19385V17.6543ZM19.2354 3.6031C20.6996 3.6031 21.8866 4.7901 21.8866 6.25435V15.003C21.8866 16.4673 20.6996 17.6543 19.2354 17.6543H18.7051C18.7051 17.6543 18.7051 17.1795 18.7051 16.5938V6.7846L19.2354 3.6031Z" fill="#006CFF" mask="url(#path-2-inside-1_7_172)"/>
<mask id="path-4-inside-2_7_172" fill="white">
<rect x="5.18921" y="7.67749" width="12.4604" height="12.4604" rx="1.0605"/>
</mask>
<rect x="5.18921" y="7.67749" width="12.4604" height="12.4604" rx="1.0605" fill="white" stroke="#006CFF" stroke-width="3.1815" mask="url(#path-4-inside-2_7_172)"/>
</svg>
