<svg width="109" height="110" viewBox="0 0 109 110" fill="none" xmlns="http://www.w3.org/2000/svg">
<g clip-path="url(#clip0_68_29)">
<rect x="2.73767" y="3.08276" width="103.525" height="103.525" rx="51.7623" stroke="#D3E6FF" stroke-width="5"/>
<rect x="-24.8124" y="83.3628" width="158.625" height="158.625" rx="79.3124" stroke="#D3E6FF" stroke-width="5"/>
<rect x="-24.8124" y="-127.678" width="158.625" height="158.625" rx="79.3124" stroke="#D3E6FF" stroke-width="5"/>
<rect x="0.237671" y="52.3451" width="108.525" height="5" fill="#D3E6FF"/>
<rect x="52" y="109.108" width="108.525" height="5" transform="rotate(-90 52 109.108)" fill="#D3E6FF"/>
<path d="M27.8707 54.8451C27.8707 40.1908 31.0648 27.0477 36.1052 17.6584C41.2012 8.16546 47.8205 3.08289 54.5 3.08289C61.1795 3.08289 67.7987 8.16546 72.8948 17.6584C77.9352 27.0477 81.1292 40.1908 81.1292 54.8451C81.1292 69.4995 77.9352 82.6426 72.8948 92.0319C67.7987 101.525 61.1795 106.607 54.5 106.607C47.8205 106.607 41.2012 101.525 36.1052 92.0319C31.0648 82.6426 27.8707 69.4995 27.8707 54.8451Z" stroke="#D3E6FF" stroke-width="5"/>
</g>
<defs>
<clipPath id="clip0_68_29">
<rect x="0.237671" y="0.582764" width="108.525" height="108.525" rx="54.2623" fill="white"/>
</clipPath>
</defs>
</svg>
