<svg width="65" height="53" viewBox="0 0 65 53" fill="none" xmlns="http://www.w3.org/2000/svg">
<path opacity="0.8" d="M32.3692 27.9241L32.6434 28.104L32.9176 27.9241L58.7577 10.9761V45.9491H6.52915V10.9761L32.3692 27.9241ZM2.38796 50.0903C3.41474 51.1171 4.63544 51.6458 6.02915 51.6458H59.2577C60.6514 51.6458 61.8721 51.1171 62.8989 50.0903C63.9256 49.0635 64.4543 47.8428 64.4543 46.4491V5.74497C64.4543 4.35126 63.9256 3.13056 62.8989 2.10378C61.8721 1.07699 60.6514 0.54834 59.2577 0.54834H6.02915C4.63544 0.54834 3.41474 1.07699 2.38796 2.10378C1.36117 3.13056 0.83252 4.35126 0.83252 5.74497V46.4491C0.83252 47.8428 1.36117 49.0635 2.38796 50.0903ZM32.6438 22.2131L8.1056 6.24497H57.2553L32.6438 22.2131Z" fill="#003F94" stroke="#003F94"/>
</svg>
