<svg width="333" height="228" viewBox="0 0 333 228" fill="none" xmlns="http://www.w3.org/2000/svg">
<rect y="0.250244" width="332.032" height="227" rx="30" fill="#98C4FF"/>
<path d="M284.846 148.282C284.846 132.647 281.767 117.166 275.784 102.722C269.8 88.2772 261.031 75.1527 249.976 64.0974C238.92 53.0421 225.796 44.2726 211.352 38.2896C196.907 32.3065 181.426 29.2271 165.791 29.2271C150.157 29.2271 134.675 32.3065 120.231 38.2896C105.786 44.2726 92.662 53.0422 81.6067 64.0974C70.5514 75.1527 61.7819 88.2772 55.7988 102.722C49.8158 117.166 46.7363 132.647 46.7363 148.282H69.5746C69.5746 135.647 72.0633 123.135 76.8986 111.461C81.7339 99.7879 88.8212 89.181 97.7558 80.2465C106.69 71.3119 117.297 64.2247 128.971 59.3893C140.644 54.554 153.156 52.0653 165.791 52.0653C178.427 52.0653 190.938 54.554 202.612 59.3893C214.285 64.2247 224.892 71.3119 233.827 80.2465C242.761 89.181 249.848 99.7879 254.684 111.461C259.519 123.135 262.008 135.647 262.008 148.282H284.846Z" fill="#609CEB"/>
<path d="M284.846 148.282C284.846 124.735 277.864 101.717 264.782 82.1386C251.7 62.5601 233.106 47.3005 211.352 38.2896C189.597 29.2786 165.659 26.9209 142.565 31.5147C119.47 36.1084 98.2568 47.4473 81.6067 64.0974L97.7558 80.2465C111.212 66.7903 128.356 57.6266 147.02 53.9141C165.684 50.2015 185.03 52.1069 202.612 59.3893C220.193 66.6717 235.22 79.0041 245.792 94.8268C256.365 110.65 262.008 129.252 262.008 148.282H284.846Z" fill="#3188FF"/>
<path d="M284.846 148.282C284.846 132.647 281.767 117.166 275.784 102.722C269.8 88.2772 261.031 75.1527 249.976 64.0974C238.92 53.0421 225.796 44.2726 211.352 38.2896C196.907 32.3065 181.426 29.2271 165.791 29.2271V52.0653C178.427 52.0653 190.938 54.554 202.612 59.3893C214.285 64.2247 224.892 71.3119 233.827 80.2465C242.761 89.181 249.848 99.7879 254.684 111.461C259.519 123.135 262.008 135.647 262.008 148.282H284.846Z" fill="#006CFF"/>
<path d="M284.846 148.282C284.846 132.647 281.767 117.166 275.784 102.722C269.8 88.2772 261.031 75.1527 249.976 64.0974L233.827 80.2465C242.761 89.181 249.848 99.7879 254.684 111.461C259.519 123.135 262.008 135.647 262.008 148.282H284.846Z" fill="#003F94"/>
<path d="M230.972 91.1752C232.019 90.6033 233.007 92.0152 232.112 92.8035L172.528 145.249C168.126 149.124 161.332 148.311 157.968 143.507C154.603 138.702 156.163 132.04 161.311 129.228L230.972 91.1752Z" fill="#122949"/>
<path d="M141.994 186.982C139.726 186.982 137.724 186.576 135.988 185.764C134.252 184.952 132.894 183.79 131.914 182.278C130.934 180.766 130.444 178.946 130.444 176.818V175.642H135.904V176.818C135.904 178.582 136.45 179.912 137.542 180.808C138.634 181.676 140.118 182.11 141.994 182.11C143.898 182.11 145.312 181.732 146.236 180.976C147.188 180.22 147.664 179.254 147.664 178.078C147.664 177.266 147.426 176.608 146.95 176.104C146.502 175.6 145.83 175.194 144.934 174.886C144.066 174.55 143.002 174.242 141.742 173.962L140.776 173.752C138.76 173.304 137.024 172.744 135.568 172.072C134.14 171.372 133.034 170.462 132.25 169.342C131.494 168.222 131.116 166.766 131.116 164.974C131.116 163.182 131.536 161.656 132.376 160.396C133.244 159.108 134.448 158.128 135.988 157.456C137.556 156.756 139.39 156.406 141.49 156.406C143.59 156.406 145.452 156.77 147.076 157.498C148.728 158.198 150.016 159.262 150.94 160.69C151.892 162.09 152.368 163.854 152.368 165.982V167.242H146.908V165.982C146.908 164.862 146.684 163.966 146.236 163.294C145.816 162.594 145.2 162.09 144.388 161.782C143.576 161.446 142.61 161.278 141.49 161.278C139.81 161.278 138.564 161.6 137.752 162.244C136.968 162.86 136.576 163.714 136.576 164.806C136.576 165.534 136.758 166.15 137.122 166.654C137.514 167.158 138.088 167.578 138.844 167.914C139.6 168.25 140.566 168.544 141.742 168.796L142.708 169.006C144.808 169.454 146.628 170.028 148.168 170.728C149.736 171.428 150.954 172.352 151.822 173.5C152.69 174.648 153.124 176.118 153.124 177.91C153.124 179.702 152.662 181.284 151.738 182.656C150.842 184 149.554 185.064 147.874 185.848C146.222 186.604 144.262 186.982 141.994 186.982ZM155.578 186.394V156.994H174.478V162.034H161.122V169.048H173.302V174.088H161.122V181.354H174.73V186.394H155.578ZM188.578 186.982C184.882 186.982 181.942 185.974 179.758 183.958C177.574 181.914 176.482 179.002 176.482 175.222V168.166C176.482 164.386 177.574 161.488 179.758 159.472C181.942 157.428 184.882 156.406 188.578 156.406C192.274 156.406 195.214 157.428 197.398 159.472C199.582 161.488 200.674 164.386 200.674 168.166V175.222C200.674 179.002 199.582 181.914 197.398 183.958C195.214 185.974 192.274 186.982 188.578 186.982ZM188.578 182.026C190.65 182.026 192.26 181.424 193.408 180.22C194.556 179.016 195.13 177.406 195.13 175.39V167.998C195.13 165.982 194.556 164.372 193.408 163.168C192.26 161.964 190.65 161.362 188.578 161.362C186.534 161.362 184.924 161.964 183.748 163.168C182.6 164.372 182.026 165.982 182.026 167.998V175.39C182.026 177.406 182.6 179.016 183.748 180.22C184.924 181.424 186.534 182.026 188.578 182.026Z" fill="#003F94"/>
</svg>
